filtEMG_segment_24.mot
version=1
nRows=75
nColumns=5
inDegrees=no
endheader
                Time	                RGAS	             RLATGAS	                RSOL	                RTIA	
          0.66500000	          0.00219507	          0.01487520	          0.00213174	          0.00321639	
          0.67000000	          0.00226969	          0.01474963	          0.00218196	          0.00320064	
          0.67500000	          0.00239747	          0.01450030	          0.00223862	          0.00315957	
          0.68000000	          0.00257874	          0.01414417	          0.00229292	          0.00309633	
          0.68500000	          0.00280996	          0.01370555	          0.00233721	          0.00301529	
          0.69000000	          0.00308365	          0.01321468	          0.00236565	          0.00292151	
          0.69500000	          0.00338858	          0.01270574	          0.00237476	          0.00282014	
          0.70000000	          0.00371033	          0.01221450	          0.00236359	          0.00271604	
          0.70500000	          0.00403205	          0.01177564	          0.00233369	          0.00261330	
          0.71000000	          0.00433561	          0.01142016	          0.00228890	          0.00251505	
          0.71500000	          0.00460285	          0.01117294	          0.00223485	          0.00242336	
          0.72000000	          0.00481688	          0.01105080	          0.00217830	          0.00233927	
          0.72500000	          0.00496349	          0.01106112	          0.00212642	          0.00226304	
          0.73000000	          0.00503224	          0.01120136	          0.00208604	          0.00219441	
          0.73500000	          0.00501746	          0.01145930	          0.00206294	          0.00213297	
          0.74000000	          0.00491882	          0.01181419	          0.00206128	          0.00207849	
          0.74500000	          0.00474153	          0.01223850	          0.00208323	          0.00203127	
          0.75000000	          0.00449605	          0.01270032	          0.00212881	          0.00199230	
          0.75500000	          0.00419744	          0.01316592	          0.00219600	          0.00196341	
          0.76000000	          0.00386424	          0.01360241	          0.00228098	          0.00194719	
          0.76500000	          0.00351716	          0.01398015	          0.00237868	          0.00194679	
          0.77000000	          0.00317747	          0.01427476	          0.00248331	          0.00196562	
          0.77500000	          0.00286546	          0.01446854	          0.00258896	          0.00200689	
          0.78000000	          0.00259899	          0.01455125	          0.00269016	          0.00207320	
          0.78500000	          0.00239215	          0.01452030	          0.00278233	          0.00216604	
          0.79000000	          0.00225443	          0.01438043	          0.00286198	          0.00228537	
          0.79500000	          0.00219017	          0.01414287	          0.00292686	          0.00242938	
          0.80000000	          0.00219843	          0.01382433	          0.00297584	          0.00259427	
          0.80500000	          0.00227340	          0.01344580	          0.00300870	          0.00277429	
          0.81000000	          0.00240505	          0.01303119	          0.00302584	          0.00296194	
          0.81500000	          0.00258013	          0.01260601	          0.00302793	          0.00314833	
          0.82000000	          0.00278343	          0.01219605	          0.00301570	          0.00332375	
          0.82500000	          0.00299907	          0.01182598	          0.00298969	          0.00347827	
          0.83000000	          0.00321175	          0.01151802	          0.00295024	          0.00360257	
          0.83500000	          0.00340799	          0.01129066	          0.00289754	          0.00368859	
          0.84000000	          0.00357704	          0.01115748	          0.00283185	          0.00373034	
          0.84500000	          0.00371161	          0.01112611	          0.00275372	          0.00372438	
          0.85000000	          0.00380813	          0.01119763	          0.00266434	          0.00367027	
          0.85500000	          0.00386683	          0.01136624	          0.00256576	          0.00357068	
          0.86000000	          0.00389130	          0.01161951	          0.00246110	          0.00343124	
          0.86500000	          0.00388786	          0.01193916	          0.00235456	          0.00326014	
          0.87000000	          0.00386463	          0.01230234	          0.00225132	          0.00306749	
          0.87500000	          0.00383052	          0.01268333	          0.00215734	          0.00286442	
          0.88000000	          0.00379411	          0.01305560	          0.00207889	          0.00266218	
          0.88500000	          0.00376267	          0.01339394	          0.00202207	          0.00247125	
          0.89000000	          0.00374139	          0.01367651	          0.00199227	          0.00230048	
          0.89500000	          0.00373288	          0.01388662	          0.00199353	          0.00215655	
          0.90000000	          0.00373692	          0.01401412	          0.00202806	          0.00204360	
          0.90500000	          0.00375069	          0.01405609	          0.00209578	          0.00196323	
          0.91000000	          0.00376921	          0.01401708	          0.00219407	          0.00191474	
          0.91500000	          0.00378608	          0.01390866	          0.00231775	          0.00189555	
          0.92000000	          0.00379435	          0.01374837	          0.00245925	          0.00190183	
          0.92500000	          0.00378747	          0.01355835	          0.00260908	          0.00192912	
          0.93000000	          0.00376019	          0.01336358	          0.00275651	          0.00197292	
          0.93500000	          0.00370921	          0.01318994	          0.00289045	          0.00202919	
          0.94000000	          0.00363375	          0.01306229	          0.00300047	          0.00209462	
          0.94500000	          0.00353563	          0.01300264	          0.00307784	          0.00216677	
          0.95000000	          0.00341924	          0.01302841	          0.00311642	          0.00224394	
          0.95500000	          0.00329110	          0.01315115	          0.00311351	          0.00232504	
          0.96000000	          0.00315926	          0.01337549	          0.00307023	          0.00240923	
          0.96500000	          0.00303254	          0.01369861	          0.00299166	          0.00249564	
          0.97000000	          0.00291969	          0.01411017	          0.00288649	          0.00258310	
          0.97500000	          0.00282863	          0.01459276	          0.00276627	          0.00266990	
          0.98000000	          0.00276572	          0.01512287	          0.00264435	          0.00275377	
          0.98500000	          0.00273525	          0.01567231	          0.00253452	          0.00283184	
          0.99000000	          0.00273913	          0.01621013	          0.00244956	          0.00290084	
          0.99500000	          0.00277677	          0.01670473	          0.00239986	          0.00295730	
          1.00000000	          0.00284514	          0.01712625	          0.00239216	          0.00299781	
          1.00500000	          0.00293913	          0.01744892	          0.00242870	          0.00301940	
          1.01000000	          0.00305194	          0.01765321	          0.00250682	          0.00301978	
          1.01500000	          0.00317566	          0.01772755	          0.00261900	          0.00299765	
          1.02000000	          0.00330194	          0.01766952	          0.00275346	          0.00295292	
          1.02500000	          0.00342260	          0.01748622	          0.00289525	          0.00288682	
          1.03000000	          0.00353031	          0.01719387	          0.00302763	          0.00280200	
          1.03500000	          0.00361913	          0.01681650	          0.00313374	          0.00270242	
